# xmcd
#
# Track frame offsets:
#	150
#	13402
#	26987
#	39483
#	56365
#	70435
#	93877
#	118773
#	131638
#	144386
#	165144
#	179546
#	195812
#
# Disc length: 2736 seconds
#
# Revision: 0
# Processed by: cddbd v1.4PL0 Copyright (c) Steve Scherf et al.
# Submitted via: dBpowerAMP V4.0
#
DISCID=ae0aae0d
DTITLE=Freak Mountain Ramblers - YGS 0012
DYEAR=1900
DGENRE=
TTITLE0=Spanish Coffee
TTITLE1=Real Fine Gal
TTITLE2=John Henry
TTITLE3=It's a Shame
TTITLE4=Long Lost Mind
TTITLE5=Old Cold Town
TTITLE6=Wind and Rain
TTITLE7=Yer'n or My'n
TTITLE8=Girl on te Billboard
TTITLE9=Belly Song
TTITLE10=Wild About My Lovin'
TTITLE11=I Cannot Slip Slowly (For Uncle Wigs)
TTITLE12=Ridin' Down the Canyon
EXTD=
EXTT0=
EXTT1=
EXTT2=
EXTT3=
EXTT4=
EXTT5=
EXTT6=
EXTT7=
EXTT8=
EXTT9=
EXTT10=
EXTT11=
EXTT12=
PLAYORDER=
